:SAMPLES-PER-SECOND 30
:FRAME-RANGE 1-2643
:FULLY-SPECIFIED
:DEGREES
826
root  120.003 39.6149 -25.254 -156.171 -81.5963 167.874
RightUpLeg  -17.4612 -12.5911 -1.9283
RightLeg  17.6578 -9.21669 -3.40979
RightFoot  -9.21842 -0.1946 7.10871
RightToes  5.38607e-012 1.2921e-014 -6.02303e-014
Spine  1.36058 -2.22225 0.494557
Spine1  5.48716 -2.30575 -0.0823312
HEad  -1.79172 13.8268 -4.37465
LeftShoulder1  1.91822 -4.29438 -18.9662
LeftArm  1.15976 -7.71894 -58.2388
LeftForeArm  40.1919 1.89489 -13.3218
LeftHand  -0.0416186 4.95375 5.31641
RightShoulder  1.69868 2.34877 23.9113
RightArm  -28.6701 9.59985 47.464
RightForeArm  62.1782 -5.1952 1.14266
RightHand  0.190452 -6.54936 -20.1509
LeftUpLeg  -14.1963 3.78111 -1.03985
LeftLeg  16.4205 16.9064 5.67168
LeftFoot  -9.44487 0.142693 -5.20015
LeftToes  -4.79707e-012 -5.93756e-011 -7.55542e-012
827
root  120.152 39.6276 -25.2993 -156.127 -83.3219 168.132
RightUpLeg  -17.605 -13.3425 -1.16266
RightLeg  17.3011 -10.0885 -3.53641
RightFoot  -8.93264 -0.208225 7.00474
RightToes  5.38607e-012 1.2921e-014 -6.02303e-014
Spine  1.15197 -2.26077 0.170232
Spine1  5.53646 -2.38076 0.0810418
HEad  -1.26986 12.8734 -3.17728
LeftShoulder1  1.96728 -4.35917 -19.4261
LeftArm  2.89401 -8.23693 -59.316
LeftForeArm  39.8212 -0.166952 -13.4662
LeftHand  -0.0642039 4.49566 5.87029
RightShoulder  1.79053 2.58034 24.3197
RightArm  -29.3196 8.8564 48.937
RightForeArm  64.5697 -5.03665 0.709704
RightHand  0.225975 -6.79216 -19.672
LeftUpLeg  -14.0368 2.53381 -0.301433
LeftLeg  14.6047 16.4043 5.14492
LeftFoot  -9.19488 0.148004 -4.9575
LeftToes  -4.79707e-012 -5.93756e-011 -7.55542e-012
828
root  120.291 39.6565 -25.3324 -156.647 -85.0109 168.942
RightUpLeg  -17.6219 -14.1383 -0.43224
RightLeg  16.7046 -10.8734 -3.50184
RightFoot  -8.53125 -0.226567 6.86198
RightToes  5.38607e-012 1.2921e-014 -6.02303e-014
Spine  0.91475 -2.26377 -0.171011
Spine1  5.85763 -2.35127 -0.0239079
HEad  -0.855701 11.8217 -1.91281
LeftShoulder1  1.98602 -4.48421 -19.242
LeftArm  4.29616 -8.62232 -60.9033
LeftForeArm  39.2834 -2.08252 -13.3904
LeftHand  -0.0642554 4.52114 6.05698
RightShoulder  1.8003 2.53376 24.7509
RightArm  -29.926 8.1668 50.7114
RightForeArm  66.7574 -4.88858 0.312346
RightHand  0.22971 -6.85186 -19.2237
LeftUpLeg  -14.1285 2.32574 0.32
LeftLeg  13.2593 15.1336 4.57363
LeftFoot  -8.93442 0.150406 -4.60921
LeftToes  -4.79707e-012 -5.93756e-011 -7.55542e-012
829
root  120.445 39.684 -25.3412 -157.366 -86.2693 169.789
RightUpLeg  -17.5738 -14.3859 0.0541196
RightLeg  16.1706 -11.8174 -3.58556
RightFoot  -8.1506 -0.244472 6.77783
RightToes  5.38607e-012 1.2921e-014 -6.02303e-014
Spine  1.1917 -2.18259 -0.437105
Spine1  5.77872 -2.09598 -0.650568
HEad  -0.615325 10.2929 -0.621627
LeftShoulder1  1.99238 -4.52103 -19.2004
LeftArm  6.33155 -9.08616 -62.0409
LeftForeArm  38.0981 -3.80773 -13.3243
LeftHand  -0.0743306 4.34202 6.24789
RightShoulder  1.82806 2.50678 25.4032
RightArm  -30.1073 7.52613 52.4058
RightForeArm  67.7577 -4.83406 0.212877
RightHand  0.289127 -7.20096 -19.3298
LeftUpLeg  -14.4924 2.09208 0.673026
LeftLeg  12.812 14.2374 4.48835
LeftFoot  -8.45663 0.161081 -4.38283
LeftToes  -4.79707e-012 -5.93756e-011 -7.55542e-012
830
root  120.55 39.7116 -25.3192 -155.607 -87.4646 168.155
RightUpLeg  -17.5426 -15.0517 0.286665
RightLeg  15.7945 -12.3828 -3.46969
RightFoot  -7.85361 -0.254315 6.58986
RightToes  5.38607e-012 1.2921e-014 -6.02303e-014
Spine  1.12018 -2.07086 -0.707758
Spine1  6.08015 -1.86716 -1.07236
HEad  -0.415578 8.6728 0.536622
LeftShoulder1  1.98415 -4.46214 -19.2939
LeftArm  8.04301 -9.69307 -62.8432
LeftForeArm  37.4985 -4.69195 -13.3206
LeftHand  -0.0867676 4.10895 6.34215
RightShoulder  1.86309 2.52862 25.9104
RightArm  -30.2316 6.91534 54.1393
RightForeArm  68.1439 -4.81337 0.177387
RightHand  0.272618 -7.08583 -19.4893
LeftUpLeg  -14.8004 1.97731 0.863613
LeftLeg  12.3992 13.2036 4.22437
LeftFoot  -8.03294 0.169141 -4.18806
LeftToes  -4.79707e-012 -5.93756e-011 -7.55542e-012
831
root  120.645 39.7434 -25.2933 -152.654 -88.6138 165.334
RightUpLeg  -17.4513 -14.9784 0.441706
RightLeg  15.3644 -13.5932 -3.50015
RightFoot  -7.47713 -0.274898 6.6323
RightToes  5.38607e-012 1.2921e-014 -6.02303e-014
Spine  1.18837 -1.99694 -0.928265
Spine1  6.13101 -1.69689 -1.41068
HEad  -0.195034 7.25918 1.2055
LeftShoulder1  1.95627 -4.31469 -19.4317
LeftArm  8.82367 -10.1592 -63.3101
LeftForeArm  37.4485 -4.86777 -13.3716
LeftHand  -0.0933753 3.97507 6.33389
RightShoulder  1.90419 2.61175 26.1705
RightArm  -29.9967 6.41156 55.9303
RightForeArm  68.3285 -4.8375 0.359903
RightHand  0.2763 -7.09354 -19.6355
LeftUpLeg  -15.1217 2.42255 1.12053
LeftLeg  12.0024 11.7742 3.64016
LeftFoot  -7.66426 0.166373 -3.75031
LeftToes  -4.79707e-012 -5.93756e-011 -7.55542e-012
832
root  120.706 39.7457 -25.2358 -149.794 -89.6806 162.575
RightUpLeg  -17.4234 -14.9801 0.630476
RightLeg  15.195 -14.6506 -3.54926
RightFoot  -7.23175 -0.292751 6.77893
RightToes  5.38607e-012 1.2921e-014 -6.02303e-014
Spine  1.13072 -1.89229 -0.834164
Spine1  6.26584 -1.48713 -1.81074
HEad  0.0757964 5.91699 1.50035
LeftShoulder1  1.96713 -4.38186 -19.3424
LeftArm  8.11403 -10.2911 -63.5457
LeftForeArm  38.1799 -4.33445 -13.4077
LeftHand  -0.0868043 4.16205 6.61991
RightShoulder  1.89347 2.5254 26.4739
RightArm  -29.1978 6.25655 57.4735
RightForeArm  68.7414 -4.90219 0.832425
RightHand  0.286107 -7.14174 -19.7355
LeftUpLeg  -15.6994 2.05924 1.36406
LeftLeg  12.419 11.1272 3.67938
LeftFoot  -7.62498 0.165465 -3.68987
LeftToes  -4.79707e-012 -5.93756e-011 -7.55542e-012
833
root  120.768 39.7507 -25.1773 18.809 -89.2607 -6.01039
RightUpLeg  -17.2967 -15.1465 0.699026
RightLeg  15.0683 -15.4472 -3.55177
RightFoot  -7.11925 -0.30373 6.91592
RightToes  5.38607e-012 1.2921e-014 -6.02303e-014
Spine  1.50265 -1.85208 -0.982411
Spine1  5.94628 -1.45203 -1.8044
HEad  0.422795 4.96315 1.50129
LeftShoulder1  1.97959 -4.41576 -19.3955
LeftArm  6.99425 -10.0388 -63.2948
LeftForeArm  39.0217 -3.67666 -13.4137
LeftHand  -0.0905264 4.04025 6.37181
RightShoulder  1.90856 2.54447 26.6333
RightArm  -28.3604 6.38374 58.7332
RightForeArm  69.4852 -4.95 1.28272
RightHand  0.276065 -7.09141 -19.6433
LeftUpLeg  -16.142 1.66667 1.52591
LeftLeg  12.727 10.5392 3.67279
LeftFoot  -7.50701 0.157719 -3.36589
LeftToes  -4.79707e-012 -5.93756e-011 -7.55542e-012
834
root  120.803 39.7261 -25.0862 23.1066 -88.4747 -10.3845
RightUpLeg  -17.3308 -15.3811 0.8462
RightLeg  15.3951 -15.8677 -3.84368
RightFoot  -7.16076 -0.31324 7.23622
RightToes  5.38607e-012 1.2921e-014 -6.02303e-014
Spine  1.82182 -1.78104 -0.804277
Spine1  5.73389 -1.32816 -2.04402
HEad  0.699283 4.16781 1.34944
LeftShoulder1  1.96493 -4.35979 -19.3909
LeftArm  5.79228 -9.80437 -62.7836
LeftForeArm  39.7315 -2.51967 -13.5053
LeftHand  -0.0840554 4.12946 6.17349
RightShoulder  1.94631 2.63596 26.7747
RightArm  -27.4354 6.65419 59.6336
RightForeArm  69.8253 -5.01977 1.77314
RightHand  0.257462 -6.98625 -19.5873
LeftUpLeg  -16.5919 1.12831 1.69873
LeftLeg  13.4954 10.3083 3.77343
LeftFoot  -7.77254 0.150847 -3.34486
LeftToes  -4.79707e-012 -5.93756e-011 -7.55542e-012
